<svg xmlns="http://www.w3.org/2000/svg" viewBox="0 0 1600 900" role="img" aria-labelledby="title desc">
  <title id="title">구천을 기는 용 프로젝트 플레이스홀더</title>
  <desc id="desc">보랏빛 안개와 산맥, 용의 실루엣을 표현한 다크 판타지 배경</desc>
  <defs>
    <linearGradient id="sky" x1="0" y1="0" x2="1" y2="1">
      <stop offset="0" stop-color="#100c21"/><stop offset=".55" stop-color="#2c173d"/><stop offset="1" stop-color="#6a2844"/>
    </linearGradient>
    <radialGradient id="moon"><stop offset="0" stop-color="#f5e5ff"/><stop offset=".25" stop-color="#c49ce8"/><stop offset="1" stop-color="#c49ce8" stop-opacity="0"/></radialGradient>
    <filter id="blur"><feGaussianBlur stdDeviation="20"/></filter>
  </defs>
  <rect width="1600" height="900" fill="url(#sky)"/>
  <circle cx="1180" cy="190" r="190" fill="url(#moon)" opacity=".62"/>
  <g fill="#171127">
    <path d="M0 650 180 430 300 590 470 360 620 610 780 430 930 640 1110 390 1280 610 1450 400 1600 620V900H0Z"/>
    <path d="M0 730 230 580 400 700 590 520 780 720 970 560 1140 730 1360 540 1600 710V900H0Z" fill="#0b0a14"/>
  </g>
  <g fill="none" stroke-linecap="round">
    <path d="M300 590C420 500 560 520 670 440S810 260 960 300s250 170 390 70" stroke="#8e6bc5" stroke-opacity=".38" stroke-width="34" filter="url(#blur)"/>
    <path d="M310 575C440 500 550 510 670 425S820 255 965 295s250 165 390 65" stroke="#d0a7ff" stroke-opacity=".7" stroke-width="8"/>
  </g>
  <path d="M1030 430c100-120 250-170 360-80-78-12-122 16-147 58 40-7 79 4 115 39-94-13-142 16-168 63-32-27-86-55-160-80Z" fill="#08070d" opacity=".92"/>
  <g fill="#d7b8ff" opacity=".55">
    <circle cx="250" cy="210" r="4"/><circle cx="480" cy="160" r="3"/><circle cx="690" cy="260" r="5"/><circle cx="910" cy="120" r="3"/><circle cx="1320" cy="210" r="5"/>
  </g>
</svg>
